<svg width="262" height="262" viewBox="0 0 262 262" fill="none" xmlns="http://www.w3.org/2000/svg">
<rect width="262" height="262" rx="131" fill="white"/>
<circle cx="129.769" cy="108.538" r="62.5385" fill="black"/>
<path d="M49.6132 132.588L74.017 80.4087C76.0409 76.0814 80.843 73.7899 85.48 74.9387L184.837 99.5537C189.348 100.671 192.494 104.749 192.431 109.395L191.133 205.52C191.059 210.989 186.604 215.385 181.134 215.385H135.275C129.752 215.385 125.275 210.908 125.275 205.385V194.177C125.275 188.654 120.798 184.177 115.275 184.177H78.542C73.0192 184.177 68.542 179.7 68.542 174.177V156.66C68.542 151.174 64.0953 146.727 58.6099 146.727C51.3397 146.727 46.5331 139.173 49.6132 132.588Z" fill="black"/>
<rect x="119.303" y="75.5386" width="17.0769" height="79.8462" rx="5" fill="white"/>
<rect x="158.072" y="88.0002" width="17.0769" height="79.8462" rx="5" transform="rotate(60 158.072 88.0002)" fill="white"/>
<rect x="166.38" y="128.154" width="17.0769" height="79.8462" rx="5" transform="rotate(120 166.38 128.154)" fill="white"/>
</svg>
