<svg width="12" height="14" viewBox="0 0 12 14" fill="none" xmlns="http://www.w3.org/2000/svg">
<path fill-rule="evenodd" clip-rule="evenodd" d="M10.5 3L10.5 11C10.5 11.8284 9.82843 12.5 9 12.5L3 12.5C2.17157 12.5 1.5 11.8284 1.5 11L1.5 3C1.5 2.17157 2.17157 1.5 3 1.5L9 1.5C9.82843 1.5 10.5 2.17157 10.5 3ZM9 -1.31134e-07C10.6569 -5.87108e-08 12 1.34315 12 3L12 11C12 12.6569 10.6569 14 9 14L3 14C1.34315 14 4.00426e-07 12.6569 4.72849e-07 11L8.2254e-07 3C8.94964e-07 1.34315 1.34315 -4.65826e-07 3 -3.93402e-07L9 -1.31134e-07ZM3 7.25L3 6.75C4.41385 5.96453 5.4328 4.58598 5.75 3L6.25 3C6.5672 4.58598 7.58615 5.96453 9 6.75L9 7.25C7.58615 8.03547 6.5672 9.41402 6.25 11L5.75 11C5.4328 9.41402 4.41385 8.03547 3 7.25Z" fill="#FCFCFC"/>
</svg>
