<svg xmlns="http://www.w3.org/2000/svg" fill="none" overflow="visible" preserveAspectRatio="none" style="display:block" viewBox="0 0 30 30"><path fill="var(--fill-0, black)" d="M2.5 7.499 15.49 0v30L2.5 22.5z"/><path fill="url(#a)" d="M15.49 30 2.5 22.5 15.49 15l12.991 7.5z"/><path fill="url(#b)" d="M15.49 30 2.5 22.5 15.49 15l12.991 7.5z"/><path fill="url(#c)" d="M2.5 7.499 15.49 0v30L2.5 22.5z"/><path fill="url(#d)" d="M15.49 30 2.5 22.5 15.49 15l12.991 7.5z"/><path fill="url(#e)" d="M2.5 7.499 15.49 0v30L2.5 22.5z"/><defs><linearGradient id="a" x1="2.5" x2="28.481" y1="22.5" y2="22.5" gradientUnits="userSpaceOnUse"><stop stop-color="#00a"/><stop offset="1" stop-color="#a78dff"/></linearGradient><linearGradient id="b" x1="2.5" x2="28.481" y1="22.5" y2="22.5" gradientUnits="userSpaceOnUse"><stop stop-color="#00a"/><stop offset="1" stop-color="#a78dff"/></linearGradient><linearGradient id="c" x1="17.185" x2="5.84" y1="28.302" y2="4.681" gradientUnits="userSpaceOnUse"><stop stop-color="#004eff"/><stop offset="1" stop-color="#0ff"/></linearGradient><linearGradient id="d" x1="2.5" x2="28.481" y1="22.5" y2="22.5" gradientUnits="userSpaceOnUse"><stop stop-color="#00a"/><stop offset="1" stop-color="#a78dff"/></linearGradient><linearGradient id="e" x1="17.185" x2="5.84" y1="28.302" y2="4.681" gradientUnits="userSpaceOnUse"><stop stop-color="#004eff"/><stop offset="1" stop-color="#0ff"/></linearGradient></defs></svg>